<svg xmlns="http://www.w3.org/2000/svg" viewBox="0 0 1400 700">
  <defs>
    <style>
      .a, .b, .c {
        fill: none;
        stroke: #5f86b3;
      }

      .a {
        stroke-miterlimit: 10;
      }

      .b {
        stroke-linejoin: bevel;
      }

      .c {
        stroke-linecap: round;
        stroke-linejoin: round;
      }
    </style>
  </defs>
  <title>illustration</title>
  <g>
    <line class="a" x1="187.63" y1="188.43" x2="187.63" y2="224.09"></line>
    <path class="a" d="M187.63,188.43A12.33,12.33,0,0,1,200,176.09h35.67A12.33,12.33,0,0,0,248,163.76V128.09"></path>
    <line class="a" x1="241.96" y1="133.09" x2="253.96" y2="133.09"></line>
    <polyline class="a" points="180.02 219.09 187.63 211.49 195.23 219.09"></polyline>
  </g>
  <g>
    <line class="a" x1="299.66" y1="277.16" x2="299.66" y2="241.49"></line>
    <polyline class="a" points="307.26 246.49 299.66 254.09 292.06 246.49"></polyline>
    <g>
      <path class="a" d="M299.66,277.16a12.33,12.33,0,0,1-12.33,12.33H251.66a12.33,12.33,0,0,0-12.33,12.33V385.4"></path>
      <path class="a" d="M239.32,385.4A12.33,12.33,0,0,1,227,397.73H191.32A12.33,12.33,0,0,0,179,410.07v35.67"></path>
    </g>
    <line class="a" x1="184.99" y1="440.73" x2="172.99" y2="440.73"></line>
  </g>
  <g>
    <line class="a" x1="89.39" y1="240.89" x2="53.72" y2="240.89"></line>
    <polyline class="a" points="58.72 233.29 66.32 240.89 58.72 248.49"></polyline>
    <g>
      <path class="a" d="M89.39,240.89a12.33,12.33,0,0,1,12.33,12.33v35.67a12.33,12.33,0,0,0,12.33,12.33h83.57"></path>
      <path class="a" d="M197.63,301.23A12.33,12.33,0,0,1,210,313.56v35.67a12.33,12.33,0,0,0,12.33,12.33H258"></path>
    </g>
    <line class="a" x1="252.96" y1="355.56" x2="252.96" y2="367.56"></line>
  </g>
  <g>
    <line class="a" x1="400.43" y1="292.82" x2="364.76" y2="292.82"></line>
    <polyline class="a" points="369.76 300.43 377.36 292.82 369.76 285.22"></polyline>
    <g>
      <path class="a" d="M400.43,292.82a12.33,12.33,0,0,0,12.33-12.33V244.82a12.33,12.33,0,0,1,12.33-12.33H778.67"></path>
      <path class="a" d="M778.67,232.49A12.33,12.33,0,0,0,791,220.16V134.49a12.33,12.33,0,0,1,12.33-12.33H839"></path>
    </g>
    <line class="a" x1="834" y1="128.16" x2="834" y2="116.16"></line>
  </g>
  <g>
    <line class="a" x1="270.29" y1="263.46" x2="495.19" y2="263.46"></line>
    <path class="a" d="M270.29,263.46A12.33,12.33,0,0,1,258,251.12V215.46a12.33,12.33,0,0,0-12.33-12.33H210"></path>
    <line class="a" x1="214.96" y1="209.12" x2="214.96" y2="197.12"></line>
    <polyline class="a" points="490.19 271.06 482.59 263.46 490.19 255.86"></polyline>
  </g>
  <g>
    <line class="a" x1="341.7" y1="367.26" x2="377.36" y2="367.26"></line>
    <path class="a" d="M341.7,367.26a12.33,12.33,0,0,1-12.33-12.33V215.46A12.33,12.33,0,0,0,317,203.12H281.36"></path>
    <line class="a" x1="286.36" y1="209.12" x2="286.36" y2="197.12"></line>
    <polyline class="a" points="372.36 374.86 364.76 367.26 372.36 359.66"></polyline>
  </g>
  <g>
    <line class="a" x1="937.02" y1="421.25" x2="937.02" y2="385.58"></line>
    <path class="a" d="M937,421.25a12.33,12.33,0,0,1-12.33,12.33H785.22a12.33,12.33,0,0,0-12.33,12.33v35.67"></path>
    <line class="a" x1="778.88" y1="476.58" x2="766.88" y2="476.58"></line>
    <polyline class="a" points="944.62 390.58 937.02 398.18 929.42 390.58"></polyline>
  </g>
  <g>
    <line class="a" x1="234.32" y1="264.56" x2="234.32" y2="228.89"></line>
    <path class="a" d="M234.32,264.56A12.33,12.33,0,0,1,222,276.89H186.32A12.33,12.33,0,0,0,174,289.23v35.67"></path>
    <line class="a" x1="179.99" y1="319.89" x2="167.99" y2="319.89"></line>
    <polyline class="a" points="241.93 233.89 234.32 241.49 226.72 233.89"></polyline>
  </g>
  <g>
    <line class="a" x1="429.8" y1="178.79" x2="429.8" y2="103.36"></line>
    <path class="a" d="M429.8,178.79a12.33,12.33,0,0,1-12.33,12.33H381.8a12.33,12.33,0,0,0-12.33,12.33v35.67"></path>
    <line class="a" x1="375.46" y1="234.12" x2="363.46" y2="234.12"></line>
    <polyline class="a" points="437.4 108.36 429.8 115.97 422.19 108.36"></polyline>
  </g>
  <g>
    <line class="a" x1="149.63" y1="198.73" x2="113.96" y2="198.73"></line>
    <path class="a" d="M149.63,198.73A12.33,12.33,0,0,1,162,211.06v35.67a12.33,12.33,0,0,0,12.33,12.33H210"></path>
    <line class="a" x1="204.96" y1="253.06" x2="204.96" y2="265.06"></line>
    <polyline class="a" points="118.96 191.13 126.56 198.73 118.96 206.33"></polyline>
  </g>
  <polygon class="b" points="399.2 370.31 387.42 370.31 411.26 348.72 402.64 364.2 414.42 364.2 390.59 385.8 399.2 370.31"></polygon>
  <polygon class="b" points="1195.52 169.21 1183.74 169.21 1207.57 147.62 1198.96 163.1 1210.74 163.1 1186.9 184.69 1195.52 169.21"></polygon>
  <circle class="b" cx="173.99" cy="343.75" r="10"></circle>
  <circle class="b" cx="1079.95" cy="433.58" r="10"></circle>
  <circle class="b" cx="783.67" cy="263.46" r="5"></circle>
  <circle class="b" cx="797.97" cy="263.46" r="5"></circle>
  <circle class="b" cx="812.26" cy="263.46" r="5"></circle>
  <path class="b" d="M439.8,76.6c0,5.52-10,19.36-10,19.36s-10-13.84-10-19.36a10,10,0,1,1,20,0Z"></path>
  <rect class="b" x="82.98" y="188.73" width="20" height="20"></rect>
  <rect class="b" x="1350" y="318.17" width="20" height="20"></rect>
  <rect class="b" x="22.55" y="230.89" width="20" height="20"></rect>
  <rect class="b" x="237.96" y="96.15" width="20" height="20" transform="translate(147.68 -144.24) rotate(45)"></rect>
  <rect class="a" x="286.2" y="125.98" width="52.59" height="7.34"></rect>
  <rect class="a" x="286.2" y="140.67" width="62.59" height="7.34"></rect>
  <rect class="a" x="286.2" y="155.35" width="52.59" height="7.34"></rect>
  <rect class="a" x="286.2" y="170.04" width="32.59" height="7.34"></rect>
  <rect class="a" x="177.86" y="456.01" width="52.59" height="7.34"></rect>
  <rect class="a" x="177.86" y="470.69" width="62.59" height="7.34"></rect>
  <rect class="a" x="177.86" y="485.38" width="52.59" height="7.34"></rect>
  <rect class="a" x="177.86" y="500.06" width="32.59" height="7.34"></rect>
  <circle class="b" cx="429.8" cy="76.73" r="3.94"></circle>
  <circle class="c" cx="853.88" cy="109.57" r="1.87"></circle>
  <circle class="c" cx="853.88" cy="131.19" r="3.24" transform="translate(157.33 642.2) rotate(-45)"></circle>
  <path class="c" d="M862,124.29c0-10.2.1-12.84-8.14-12.84s-8.14,2.65-8.14,12.84H843v3.62h21.8v-3.62Z"></path>
  <line class="b" x1="25.98" y1="234.97" x2="36.17" y2="234.97"></line>
  <line class="b" x1="25.98" y1="238.51" x2="36.17" y2="238.51"></line>
  <line class="b" x1="25.98" y1="242.04" x2="36.17" y2="242.04"></line>
  <line class="b" x1="25.98" y1="245.58" x2="36.17" y2="245.58"></line>
  <polygon class="b" points="272.96 350.13 276.02 356.34 282.87 357.33 277.92 362.17 279.08 368.99 272.96 365.77 266.83 368.99 268 362.17 263.05 357.33 269.9 356.34 272.96 350.13"></polygon>
  <line class="b" x1="282.07" y1="411.23" x2="317.24" y2="411.23"></line>
  <line class="b" x1="282.07" y1="419.91" x2="297.24" y2="419.91"></line>
  <line class="b" x1="71.8" y1="345.79" x2="106.97" y2="345.79"></line>
  <line class="b" x1="71.8" y1="354.47" x2="86.97" y2="354.47"></line>
  <line class="b" x1="799.68" y1="39.59" x2="834.85" y2="39.59"></line>
  <line class="b" x1="799.68" y1="48.27" x2="814.85" y2="48.27"></line>
  <g>
    <line class="b" x1="143.49" y1="154.14" x2="155.76" y2="141.88"></line>
    <line class="b" x1="143.49" y1="141.88" x2="155.76" y2="154.14"></line>
  </g>
  <g>
    <line class="b" x1="1050.24" y1="87.24" x2="1062.51" y2="74.97"></line>
    <line class="b" x1="1050.24" y1="74.97" x2="1062.51" y2="87.24"></line>
  </g>
  <g>
    <line class="b" x1="480.56" y1="191.12" x2="463.21" y2="191.12"></line>
    <line class="b" x1="471.88" y1="199.8" x2="471.88" y2="182.45"></line>
  </g>
  <g>
    <line class="a" x1="1140.28" y1="351.23" x2="1140.28" y2="315.57"></line>
    <path class="a" d="M1140.28,351.23a12.33,12.33,0,0,1-12.33,12.33h-35.67a12.33,12.33,0,0,0-12.33,12.33v35.67"></path>
    <line class="a" x1="1085.95" y1="406.57" x2="1073.95" y2="406.57"></line>
    <polyline class="a" points="1147.88 320.57 1140.28 328.17 1132.68 320.57"></polyline>
  </g>
  <g>
    <path class="a" d="M1148.92,93.93v35.67a12.33,12.33,0,0,1-12.33,12.33h-35.67a12.33,12.33,0,0,0-12.33,12.33V235"></path>
    <line class="a" x1="1142.92" y1="98.93" x2="1154.92" y2="98.93"></line>
    <polyline class="a" points="1081.12 230.85 1088.72 223.25 1096.33 230.85"></polyline>
  </g>
  <g>
    <line class="a" x1="1052.3" y1="208.39" x2="956.63" y2="208.39"></line>
    <polyline class="a" points="961.63 200.78 969.23 208.39 961.63 215.99"></polyline>
    <g>
      <path class="a" d="M1052.3,208.39a12.33,12.33,0,0,1,12.33,12.33v35.67A12.33,12.33,0,0,0,1077,268.72h83.57"></path>
      <path class="a" d="M1160.54,268.72a12.33,12.33,0,0,1,12.33,12.33v35.67a12.33,12.33,0,0,0,12.33,12.33h154.67"></path>
    </g>
    <line class="a" x1="1334.87" y1="323.05" x2="1334.87" y2="335.05"></line>
  </g>
  <g>
    <line class="a" x1="867.48" y1="246.84" x2="903.15" y2="246.84"></line>
    <polyline class="a" points="898.15 239.23 890.54 246.84 898.15 254.44"></polyline>
    <g>
      <path class="a" d="M867.48,246.84a12.33,12.33,0,0,0-12.33,12.33v35.67a12.33,12.33,0,0,1-12.33,12.33H489.24"></path>
      <path class="a" d="M489.24,307.17a12.33,12.33,0,0,0-12.33,12.33v35.67a12.33,12.33,0,0,1-12.33,12.33H428.91"></path>
    </g>
    <line class="a" x1="433.91" y1="361.5" x2="433.91" y2="373.5"></line>
  </g>
  <g>
    <line class="a" x1="1057.62" y1="276.2" x2="888.72" y2="276.2"></line>
    <path class="a" d="M1057.62,276.2a12.33,12.33,0,0,1,12.33,12.33V324.2a12.33,12.33,0,0,0,12.33,12.33h35.67"></path>
    <line class="a" x1="1112.95" y1="330.53" x2="1112.95" y2="342.53"></line>
    <polyline class="a" points="893.72 268.6 901.32 276.2 893.72 283.8"></polyline>
  </g>
  <g>
    <line class="a" x1="926.21" y1="122.4" x2="880.54" y2="122.4"></line>
    <path class="a" d="M926.21,122.4a12.33,12.33,0,0,1,12.33,12.33V324.2a12.33,12.33,0,0,0,12.33,12.33h35.67"></path>
    <line class="a" x1="981.54" y1="330.53" x2="981.54" y2="342.53"></line>
    <polyline class="a" points="885.54 114.8 893.15 122.4 885.54 130"></polyline>
  </g>
  <g>
    <line class="a" x1="1197.24" y1="232.05" x2="1197.24" y2="196.39"></line>
    <path class="a" d="M1197.24,232.05a12.33,12.33,0,0,1-12.33,12.33h-35.67a12.33,12.33,0,0,0-12.33,12.33v35.67"></path>
    <line class="a" x1="1142.9" y1="287.39" x2="1130.9" y2="287.39"></line>
    <polyline class="a" points="1204.84 201.39 1197.24 208.99 1189.63 201.39"></polyline>
  </g>
  <g>
    <line class="a" x1="838.11" y1="360.87" x2="838.11" y2="486.29"></line>
    <path class="a" d="M838.11,360.87a12.33,12.33,0,0,1,12.33-12.33h35.67a12.33,12.33,0,0,0,12.33-12.33V300.53"></path>
    <line class="a" x1="892.45" y1="305.53" x2="904.45" y2="305.53"></line>
    <polyline class="a" points="830.51 481.3 838.11 473.69 845.71 481.3"></polyline>
  </g>
  <g>
    <line class="a" x1="1112.54" y1="166.22" x2="986.87" y2="166.22"></line>
    <path class="a" d="M1112.54,166.22a12.33,12.33,0,0,1,12.33,12.33v35.67a12.33,12.33,0,0,0,12.33,12.33h35.67"></path>
    <line class="a" x1="1167.87" y1="220.55" x2="1167.87" y2="232.55"></line>
    <polyline class="a" points="1051.87 158.62 1059.47 166.22 1051.87 173.82"></polyline>
  </g>
</svg>
